<?xml version="1.0" encoding="UTF-8" standalone="no"?>
<!DOCTYPE svg PUBLIC "-//W3C//DTD SVG 1.1//EN" "http://www.w3.org/Graphics/SVG/1.1/DTD/svg11.dtd">
<svg xmlns="http://www.w3.org/2000/svg" version="1.1" viewBox="0.00 0.00 1773.00 1773.00">
<g stroke-width="2.00" fill="none" stroke-linecap="butt">
<path stroke="#8aa2e3" vector-effect="non-scaling-stroke" d="
  M 1426.70 179.70
  Q 1426.85 195.35 1427.14 204.91
  Q 1428.15 237.72 1433.52 269.83
  C 1443.88 331.67 1472.54 400.74 1539.49 419.49
  Q 1563.97 426.34 1589.56 424.25
  Q 1620.29 421.73 1646.18 404.23
  C 1672.56 386.40 1689.47 356.93 1694.27 325.13
  Q 1700.14 286.14 1688.55 249.49
  Q 1674.06 203.70 1635.77 174.75
  A 1.44 1.44 0.0 0 1 1636.47 172.17
  L 1686.54 166.41
  Q 1686.89 166.37 1686.89 166.02
  L 1686.88 99.02
  A 0.22 0.21 -4.6 0 0 1686.63 98.81
  Q 1658.16 103.45 1628.99 104.60
  Q 1602.72 105.62 1579.99 105.62
  Q 1545.15 105.59 1433.48 105.55
  Q 1410.69 105.53 1387.75 109.57
  Q 1366.69 113.27 1347.68 121.51
  Q 1307.35 138.97 1287.14 176.43
  C 1273.49 201.71 1268.93 231.54 1268.89 259.69
  Q 1268.82 309.30 1285.08 354.30
  Q 1292.68 375.37 1304.74 394.59
  A 1.04 1.04 0.0 0 0 1305.96 395.02
  L 1353.76 378.52
  A 0.43 0.43 0.0 0 0 1353.99 377.89
  Q 1331.30 340.96 1325.57 296.91
  Q 1322.85 275.94 1324.65 256.89
  Q 1325.95 243.15 1329.78 232.14
  Q 1342.57 195.38 1380.75 184.05
  Q 1400.15 178.30 1426.16 179.16
  Q 1426.69 179.18 1426.70 179.70"
/>
<path stroke="#8aa2e3" vector-effect="non-scaling-stroke" d="
  M 1612.51 651.44
  Q 1613.34 653.10 1611.42 653.61
  Q 1567.23 665.27 1527.73 679.29
  Q 1510.83 685.28 1510.81 685.29
  Q 1402.86 723.06 1278.61 766.42
  A 0.67 0.66 -10.2 0 0 1278.17 767.04
  L 1278.17 845.49
  A 0.44 0.44 0.0 0 0 1278.76 845.90
  L 1686.23 690.96
  Q 1686.89 690.70 1686.89 689.99
  L 1686.89 620.33
  Q 1686.89 619.64 1686.25 619.38
  L 1278.71 459.44
  A 0.40 0.39 10.8 0 0 1278.17 459.80
  L 1278.17 536.69
  Q 1278.17 537.06 1278.52 537.19
  Q 1367.60 567.99 1500.62 613.90
  Q 1512.60 618.04 1519.47 620.56
  Q 1567.30 638.16 1611.92 650.95
  A 0.98 0.98 0.0 0 1 1612.51 651.44"
/>
<path stroke="#8aa2e3" vector-effect="non-scaling-stroke" d="
  M 1426.71 982.61
  Q 1426.86 998.26 1427.15 1007.82
  Q 1428.15 1040.63 1433.52 1072.74
  C 1443.87 1134.58 1472.51 1203.65 1539.46 1222.40
  Q 1563.93 1229.26 1589.52 1227.17
  Q 1620.25 1224.66 1646.14 1207.16
  C 1672.52 1189.34 1689.44 1159.87 1694.24 1128.08
  Q 1700.12 1089.09 1688.53 1052.44
  Q 1674.05 1006.65 1635.77 977.70
  A 1.44 1.44 0.0 0 1 1636.47 975.12
  L 1686.54 969.37
  Q 1686.89 969.33 1686.89 968.98
  L 1686.89 901.98
  A 0.22 0.21 -4.6 0 0 1686.64 901.77
  Q 1658.17 906.41 1629.00 907.55
  Q 1602.73 908.57 1580.00 908.56
  Q 1545.17 908.53 1433.50 908.47
  Q 1410.72 908.45 1387.78 912.48
  Q 1366.72 916.18 1347.71 924.41
  Q 1307.38 941.87 1287.16 979.32
  C 1273.51 1004.60 1268.95 1034.42 1268.90 1062.57
  Q 1268.82 1112.18 1285.07 1157.18
  Q 1292.67 1178.25 1304.73 1197.47
  A 1.04 1.04 0.0 0 0 1305.95 1197.90
  L 1353.75 1181.41
  A 0.43 0.43 0.0 0 0 1353.98 1180.78
  Q 1331.29 1143.85 1325.57 1099.80
  Q 1322.85 1078.83 1324.66 1059.78
  Q 1325.96 1046.04 1329.79 1035.03
  Q 1342.59 998.28 1380.77 986.96
  Q 1400.16 981.21 1426.17 982.07
  Q 1426.70 982.09 1426.71 982.61"
/>
<path stroke="#8aa2e3" vector-effect="non-scaling-stroke" d="
  M 1345.23 1597.35
  L 1278.66 1601.57
  A 0.52 0.52 0.0 0 0 1278.17 1602.09
  L 1278.17 1667.19
  A 0.29 0.29 0.0 0 0 1278.48 1667.48
  Q 1328.91 1664.19 1379.50 1664.18
  Q 1533.08 1664.15 1686.57 1664.17
  A 0.32 0.31 0.0 0 0 1686.89 1663.86
  L 1686.89 1590.30
  Q 1686.89 1589.83 1686.41 1589.83
  Q 1451.61 1589.74 1441.52 1589.82
  Q 1409.88 1590.09 1382.97 1574.19
  Q 1358.26 1559.58 1344.21 1535.43
  Q 1328.77 1508.91 1330.91 1476.78
  C 1332.68 1450.23 1343.62 1427.09 1365.96 1411.93
  Q 1379.71 1402.60 1395.56 1398.01
  Q 1419.68 1391.03 1446.28 1390.73
  Q 1466.93 1390.50 1686.51 1390.63
  Q 1686.89 1390.63 1686.89 1390.25
  L 1686.89 1316.79
  Q 1686.89 1316.27 1686.36 1316.27
  Q 1563.70 1316.15 1446.25 1316.27
  Q 1432.72 1316.28 1426.25 1316.63
  C 1401.36 1317.97 1375.90 1322.51 1353.38 1332.11
  Q 1293.01 1357.83 1274.62 1419.78
  Q 1271.78 1429.34 1270.46 1439.31
  Q 1264.31 1485.78 1282.98 1527.85
  C 1295.74 1556.59 1317.80 1580.43 1345.22 1595.66
  Q 1345.73 1595.94 1345.86 1596.50
  Q 1346.06 1597.30 1345.23 1597.35"
/>
<path stroke="#8aa2e3" vector-effect="non-scaling-stroke" d="
  M 1478.99 177.39
  Q 1478.41 177.39 1478.39 177.98
  Q 1477.70 203.73 1480.11 230.98
  Q 1482.10 253.53 1487.84 275.50
  Q 1492.63 293.81 1501.28 309.31
  C 1514.67 333.32 1535.83 348.34 1563.87 350.10
  C 1592.40 351.89 1619.20 342.44 1632.98 316.35
  C 1638.00 306.84 1640.67 295.45 1641.10 284.62
  C 1642.75 242.54 1622.28 205.63 1584.37 186.40
  Q 1574.13 181.21 1561.66 178.68
  Q 1554.77 177.29 1541.76 177.36
  Q 1528.21 177.42 1478.99 177.39"
/>
<path stroke="#8aa2e3" vector-effect="non-scaling-stroke" d="
  M 1479.00 980.28
  Q 1478.42 980.28 1478.40 980.87
  Q 1477.71 1006.62 1480.11 1033.87
  Q 1482.10 1056.42 1487.83 1078.39
  Q 1492.62 1096.71 1501.27 1112.21
  C 1514.65 1136.22 1535.81 1151.24 1563.85 1153.01
  C 1592.38 1154.81 1619.18 1145.36 1632.97 1119.27
  C 1637.99 1109.76 1640.66 1098.37 1641.10 1087.54
  C 1642.75 1045.46 1622.29 1008.55 1584.38 989.31
  Q 1574.14 984.12 1561.67 981.59
  Q 1554.78 980.20 1541.77 980.26
  Q 1528.22 980.32 1479.00 980.28"
/>
</g>
<path fill="#275ada" d="
  M 1773.00 0.00
  L 1773.00 1773.00
  L 0.00 1773.00
  L 0.00 0.00
  L 1773.00 0.00
  Z
  M 1426.70 179.70
  Q 1426.85 195.35 1427.14 204.91
  Q 1428.15 237.72 1433.52 269.83
  C 1443.88 331.67 1472.54 400.74 1539.49 419.49
  Q 1563.97 426.34 1589.56 424.25
  Q 1620.29 421.73 1646.18 404.23
  C 1672.56 386.40 1689.47 356.93 1694.27 325.13
  Q 1700.14 286.14 1688.55 249.49
  Q 1674.06 203.70 1635.77 174.75
  A 1.44 1.44 0.0 0 1 1636.47 172.17
  L 1686.54 166.41
  Q 1686.89 166.37 1686.89 166.02
  L 1686.88 99.02
  A 0.22 0.21 -4.6 0 0 1686.63 98.81
  Q 1658.16 103.45 1628.99 104.60
  Q 1602.72 105.62 1579.99 105.62
  Q 1545.15 105.59 1433.48 105.55
  Q 1410.69 105.53 1387.75 109.57
  Q 1366.69 113.27 1347.68 121.51
  Q 1307.35 138.97 1287.14 176.43
  C 1273.49 201.71 1268.93 231.54 1268.89 259.69
  Q 1268.82 309.30 1285.08 354.30
  Q 1292.68 375.37 1304.74 394.59
  A 1.04 1.04 0.0 0 0 1305.96 395.02
  L 1353.76 378.52
  A 0.43 0.43 0.0 0 0 1353.99 377.89
  Q 1331.30 340.96 1325.57 296.91
  Q 1322.85 275.94 1324.65 256.89
  Q 1325.95 243.15 1329.78 232.14
  Q 1342.57 195.38 1380.75 184.05
  Q 1400.15 178.30 1426.16 179.16
  Q 1426.69 179.18 1426.70 179.70
  Z
  M 1612.51 651.44
  Q 1613.34 653.10 1611.42 653.61
  Q 1567.23 665.27 1527.73 679.29
  Q 1510.83 685.28 1510.81 685.29
  Q 1402.86 723.06 1278.61 766.42
  A 0.67 0.66 -10.2 0 0 1278.17 767.04
  L 1278.17 845.49
  A 0.44 0.44 0.0 0 0 1278.76 845.90
  L 1686.23 690.96
  Q 1686.89 690.70 1686.89 689.99
  L 1686.89 620.33
  Q 1686.89 619.64 1686.25 619.38
  L 1278.71 459.44
  A 0.40 0.39 10.8 0 0 1278.17 459.80
  L 1278.17 536.69
  Q 1278.17 537.06 1278.52 537.19
  Q 1367.60 567.99 1500.62 613.90
  Q 1512.60 618.04 1519.47 620.56
  Q 1567.30 638.16 1611.92 650.95
  A 0.98 0.98 0.0 0 1 1612.51 651.44
  Z
  M 1426.71 982.61
  Q 1426.86 998.26 1427.15 1007.82
  Q 1428.15 1040.63 1433.52 1072.74
  C 1443.87 1134.58 1472.51 1203.65 1539.46 1222.40
  Q 1563.93 1229.26 1589.52 1227.17
  Q 1620.25 1224.66 1646.14 1207.16
  C 1672.52 1189.34 1689.44 1159.87 1694.24 1128.08
  Q 1700.12 1089.09 1688.53 1052.44
  Q 1674.05 1006.65 1635.77 977.70
  A 1.44 1.44 0.0 0 1 1636.47 975.12
  L 1686.54 969.37
  Q 1686.89 969.33 1686.89 968.98
  L 1686.89 901.98
  A 0.22 0.21 -4.6 0 0 1686.64 901.77
  Q 1658.17 906.41 1629.00 907.55
  Q 1602.73 908.57 1580.00 908.56
  Q 1545.17 908.53 1433.50 908.47
  Q 1410.72 908.45 1387.78 912.48
  Q 1366.72 916.18 1347.71 924.41
  Q 1307.38 941.87 1287.16 979.32
  C 1273.51 1004.60 1268.95 1034.42 1268.90 1062.57
  Q 1268.82 1112.18 1285.07 1157.18
  Q 1292.67 1178.25 1304.73 1197.47
  A 1.04 1.04 0.0 0 0 1305.95 1197.90
  L 1353.75 1181.41
  A 0.43 0.43 0.0 0 0 1353.98 1180.78
  Q 1331.29 1143.85 1325.57 1099.80
  Q 1322.85 1078.83 1324.66 1059.78
  Q 1325.96 1046.04 1329.79 1035.03
  Q 1342.59 998.28 1380.77 986.96
  Q 1400.16 981.21 1426.17 982.07
  Q 1426.70 982.09 1426.71 982.61
  Z
  M 1345.23 1597.35
  L 1278.66 1601.57
  A 0.52 0.52 0.0 0 0 1278.17 1602.09
  L 1278.17 1667.19
  A 0.29 0.29 0.0 0 0 1278.48 1667.48
  Q 1328.91 1664.19 1379.50 1664.18
  Q 1533.08 1664.15 1686.57 1664.17
  A 0.32 0.31 0.0 0 0 1686.89 1663.86
  L 1686.89 1590.30
  Q 1686.89 1589.83 1686.41 1589.83
  Q 1451.61 1589.74 1441.52 1589.82
  Q 1409.88 1590.09 1382.97 1574.19
  Q 1358.26 1559.58 1344.21 1535.43
  Q 1328.77 1508.91 1330.91 1476.78
  C 1332.68 1450.23 1343.62 1427.09 1365.96 1411.93
  Q 1379.71 1402.60 1395.56 1398.01
  Q 1419.68 1391.03 1446.28 1390.73
  Q 1466.93 1390.50 1686.51 1390.63
  Q 1686.89 1390.63 1686.89 1390.25
  L 1686.89 1316.79
  Q 1686.89 1316.27 1686.36 1316.27
  Q 1563.70 1316.15 1446.25 1316.27
  Q 1432.72 1316.28 1426.25 1316.63
  C 1401.36 1317.97 1375.90 1322.51 1353.38 1332.11
  Q 1293.01 1357.83 1274.62 1419.78
  Q 1271.78 1429.34 1270.46 1439.31
  Q 1264.31 1485.78 1282.98 1527.85
  C 1295.74 1556.59 1317.80 1580.43 1345.22 1595.66
  Q 1345.73 1595.94 1345.86 1596.50
  Q 1346.06 1597.30 1345.23 1597.35
  Z"
/>
<path fill="#eceaeb" d="
  M 1426.70 179.70
  Q 1426.69 179.18 1426.16 179.16
  Q 1400.15 178.30 1380.75 184.05
  Q 1342.57 195.38 1329.78 232.14
  Q 1325.95 243.15 1324.65 256.89
  Q 1322.85 275.94 1325.57 296.91
  Q 1331.30 340.96 1353.99 377.89
  A 0.43 0.43 0.0 0 1 1353.76 378.52
  L 1305.96 395.02
  A 1.04 1.04 0.0 0 1 1304.74 394.59
  Q 1292.68 375.37 1285.08 354.30
  Q 1268.82 309.30 1268.89 259.69
  C 1268.93 231.54 1273.49 201.71 1287.14 176.43
  Q 1307.35 138.97 1347.68 121.51
  Q 1366.69 113.27 1387.75 109.57
  Q 1410.69 105.53 1433.48 105.55
  Q 1545.15 105.59 1579.99 105.62
  Q 1602.72 105.62 1628.99 104.60
  Q 1658.16 103.45 1686.63 98.81
  A 0.22 0.21 -4.6 0 1 1686.88 99.02
  L 1686.89 166.02
  Q 1686.89 166.37 1686.54 166.41
  L 1636.47 172.17
  A 1.44 1.44 0.0 0 0 1635.77 174.75
  Q 1674.06 203.70 1688.55 249.49
  Q 1700.14 286.14 1694.27 325.13
  C 1689.47 356.93 1672.56 386.40 1646.18 404.23
  Q 1620.29 421.73 1589.56 424.25
  Q 1563.97 426.34 1539.49 419.49
  C 1472.54 400.74 1443.88 331.67 1433.52 269.83
  Q 1428.15 237.72 1427.14 204.91
  Q 1426.85 195.35 1426.70 179.70
  Z
  M 1478.99 177.39
  Q 1478.41 177.39 1478.39 177.98
  Q 1477.70 203.73 1480.11 230.98
  Q 1482.10 253.53 1487.84 275.50
  Q 1492.63 293.81 1501.28 309.31
  C 1514.67 333.32 1535.83 348.34 1563.87 350.10
  C 1592.40 351.89 1619.20 342.44 1632.98 316.35
  C 1638.00 306.84 1640.67 295.45 1641.10 284.62
  C 1642.75 242.54 1622.28 205.63 1584.37 186.40
  Q 1574.13 181.21 1561.66 178.68
  Q 1554.77 177.29 1541.76 177.36
  Q 1528.21 177.42 1478.99 177.39
  Z"
/>
<path fill="#275ada" d="
  M 1478.99 177.39
  Q 1528.21 177.42 1541.76 177.36
  Q 1554.77 177.29 1561.66 178.68
  Q 1574.13 181.21 1584.37 186.40
  C 1622.28 205.63 1642.75 242.54 1641.10 284.62
  C 1640.67 295.45 1638.00 306.84 1632.98 316.35
  C 1619.20 342.44 1592.40 351.89 1563.87 350.10
  C 1535.83 348.34 1514.67 333.32 1501.28 309.31
  Q 1492.63 293.81 1487.84 275.50
  Q 1482.10 253.53 1480.11 230.98
  Q 1477.70 203.73 1478.39 177.98
  Q 1478.41 177.39 1478.99 177.39
  Z"
/>
<path fill="#eceaeb" d="
  M 1612.51 651.44
  A 0.98 0.98 0.0 0 0 1611.92 650.95
  Q 1567.30 638.16 1519.47 620.56
  Q 1512.60 618.04 1500.62 613.90
  Q 1367.60 567.99 1278.52 537.19
  Q 1278.17 537.06 1278.17 536.69
  L 1278.17 459.80
  A 0.40 0.39 10.8 0 1 1278.71 459.44
  L 1686.25 619.38
  Q 1686.89 619.64 1686.89 620.33
  L 1686.89 689.99
  Q 1686.89 690.70 1686.23 690.96
  L 1278.76 845.90
  A 0.44 0.44 0.0 0 1 1278.17 845.49
  L 1278.17 767.04
  A 0.67 0.66 -10.2 0 1 1278.61 766.42
  Q 1402.86 723.06 1510.81 685.29
  Q 1510.83 685.28 1527.73 679.29
  Q 1567.23 665.27 1611.42 653.61
  Q 1613.34 653.10 1612.51 651.44
  Z"
/>
<path fill="#eceaeb" d="
  M 1426.17 982.07
  Q 1400.16 981.21 1380.77 986.96
  Q 1342.59 998.28 1329.79 1035.03
  Q 1325.96 1046.04 1324.66 1059.78
  Q 1322.85 1078.83 1325.57 1099.80
  Q 1331.29 1143.85 1353.98 1180.78
  A 0.43 0.43 0.0 0 1 1353.75 1181.41
  L 1305.95 1197.90
  A 1.04 1.04 0.0 0 1 1304.73 1197.47
  Q 1292.67 1178.25 1285.07 1157.18
  Q 1268.82 1112.18 1268.90 1062.57
  C 1268.95 1034.42 1273.51 1004.60 1287.16 979.32
  Q 1307.38 941.87 1347.71 924.41
  Q 1366.72 916.18 1387.78 912.48
  Q 1410.72 908.45 1433.50 908.47
  Q 1545.17 908.53 1580.00 908.56
  Q 1602.73 908.57 1629.00 907.55
  Q 1658.17 906.41 1686.64 901.77
  A 0.22 0.21 -4.6 0 1 1686.89 901.98
  L 1686.89 968.98
  Q 1686.89 969.33 1686.54 969.37
  L 1636.47 975.12
  A 1.44 1.44 0.0 0 0 1635.77 977.70
  Q 1674.05 1006.65 1688.53 1052.44
  Q 1700.12 1089.09 1694.24 1128.08
  C 1689.44 1159.87 1672.52 1189.34 1646.14 1207.16
  Q 1620.25 1224.66 1589.52 1227.17
  Q 1563.93 1229.26 1539.46 1222.40
  C 1472.51 1203.65 1443.87 1134.58 1433.52 1072.74
  Q 1428.15 1040.63 1427.15 1007.82
  Q 1426.86 998.26 1426.71 982.61
  Q 1426.70 982.09 1426.17 982.07
  Z
  M 1479.00 980.28
  Q 1478.42 980.28 1478.40 980.87
  Q 1477.71 1006.62 1480.11 1033.87
  Q 1482.10 1056.42 1487.83 1078.39
  Q 1492.62 1096.71 1501.27 1112.21
  C 1514.65 1136.22 1535.81 1151.24 1563.85 1153.01
  C 1592.38 1154.81 1619.18 1145.36 1632.97 1119.27
  C 1637.99 1109.76 1640.66 1098.37 1641.10 1087.54
  C 1642.75 1045.46 1622.29 1008.55 1584.38 989.31
  Q 1574.14 984.12 1561.67 981.59
  Q 1554.78 980.20 1541.77 980.26
  Q 1528.22 980.32 1479.00 980.28
  Z"
/>
<path fill="#275ada" d="
  M 1479.00 980.28
  Q 1528.22 980.32 1541.77 980.26
  Q 1554.78 980.20 1561.67 981.59
  Q 1574.14 984.12 1584.38 989.31
  C 1622.29 1008.55 1642.75 1045.46 1641.10 1087.54
  C 1640.66 1098.37 1637.99 1109.76 1632.97 1119.27
  C 1619.18 1145.36 1592.38 1154.81 1563.85 1153.01
  C 1535.81 1151.24 1514.65 1136.22 1501.27 1112.21
  Q 1492.62 1096.71 1487.83 1078.39
  Q 1482.10 1056.42 1480.11 1033.87
  Q 1477.71 1006.62 1478.40 980.87
  Q 1478.42 980.28 1479.00 980.28
  Z"
/>
<path fill="#eceaeb" d="
  M 1345.23 1597.35
  Q 1346.06 1597.30 1345.86 1596.50
  Q 1345.73 1595.94 1345.22 1595.66
  C 1317.80 1580.43 1295.74 1556.59 1282.98 1527.85
  Q 1264.31 1485.78 1270.46 1439.31
  Q 1271.78 1429.34 1274.62 1419.78
  Q 1293.01 1357.83 1353.38 1332.11
  C 1375.90 1322.51 1401.36 1317.97 1426.25 1316.63
  Q 1432.72 1316.28 1446.25 1316.27
  Q 1563.70 1316.15 1686.36 1316.27
  Q 1686.89 1316.27 1686.89 1316.79
  L 1686.89 1390.25
  Q 1686.89 1390.63 1686.51 1390.63
  Q 1466.93 1390.50 1446.28 1390.73
  Q 1419.68 1391.03 1395.56 1398.01
  Q 1379.71 1402.60 1365.96 1411.93
  C 1343.62 1427.09 1332.68 1450.23 1330.91 1476.78
  Q 1328.77 1508.91 1344.21 1535.43
  Q 1358.26 1559.58 1382.97 1574.19
  Q 1409.88 1590.09 1441.52 1589.82
  Q 1451.61 1589.74 1686.41 1589.83
  Q 1686.89 1589.83 1686.89 1590.30
  L 1686.89 1663.86
  A 0.32 0.31 -0.0 0 1 1686.57 1664.17
  Q 1533.08 1664.15 1379.50 1664.18
  Q 1328.91 1664.19 1278.48 1667.48
  A 0.29 0.29 0.0 0 1 1278.17 1667.19
  L 1278.17 1602.09
  A 0.52 0.52 0.0 0 1 1278.66 1601.57
  L 1345.23 1597.35
  Z"
/>
</svg>
